AcariSans-Light.ufo
<glyph name="nine" format="2">
  <advance width="1229"/>
  <unicode hex="0039"/>
  <outline>
    <contour>
      <point x="623" y="1468" type="curve" smooth="yes"/>
      <point x="348" y="1468"/>
      <point x="149" y="1253"/>
      <point x="149" y="982" type="curve" smooth="yes"/>
      <point x="149" y="716"/>
      <point x="356" y="536"/>
      <point x="612" y="536" type="curve" smooth="yes"/>
      <point x="673" y="536"/>
      <point x="743" y="548"/>
      <point x="802" y="568" type="curve"/>
      <point x="782" y="580" type="line"/>
      <point x="449" y="1" type="line"/>
      <point x="595" y="1" type="line"/>
      <point x="1017" y="743" type="line" smooth="yes"/>
      <point x="1063" y="825"/>
      <point x="1084" y="903"/>
      <point x="1084" y="997" type="curve" smooth="yes"/>
      <point x="1084" y="1251"/>
      <point x="880" y="1468"/>
    </contour>
    <contour>
      <point x="612" y="1346" type="curve" smooth="yes"/>
      <point x="801" y="1346"/>
      <point x="950" y="1184"/>
      <point x="950" y="997" type="curve" smooth="yes"/>
      <point x="950" y="801"/>
      <point x="817" y="649"/>
      <point x="617" y="649" type="curve" smooth="yes"/>
      <point x="426" y="649"/>
      <point x="280" y="797"/>
      <point x="280" y="987" type="curve" smooth="yes"/>
      <point x="280" y="1171"/>
      <point x="419" y="1346"/>
    </contour>
  </outline>
</glyph>
<glyph name="twosuperior" format="2">
  <advance width="921"/>
  <unicode hex="00B2"/>
  <outline>
    <contour>
      <point x="117" y="932" type="line"/>
      <point x="787" y="932" type="line" name=".dv01"/>
      <point x="787" y="1016" type="line" name=".dv02"/>
      <point x="245" y="1016" type="line" name=".sh03"/>
      <point x="570" y="1221"/>
      <point x="739" y="1421"/>
      <point x="739" y="1628" type="curve" smooth="yes" name=".sh04"/>
      <point x="739" y="1794"/>
      <point x="627" y="1900"/>
      <point x="453" y="1900" type="curve" smooth="yes" name=".dv04"/>
      <point x="279" y="1900"/>
      <point x="162" y="1773"/>
      <point x="162" y="1584" type="curve" name=".sh01"/>
      <point x="260" y="1574" type="line" name=".sh02"/>
      <point x="260" y="1716"/>
      <point x="337" y="1810"/>
      <point x="457" y="1810" type="curve" smooth="yes" name=".dv03"/>
      <point x="569" y="1810"/>
      <point x="634" y="1740"/>
      <point x="634" y="1620" type="curve" smooth="yes" name=".ah01"/>
      <point x="634" y="1450"/>
      <point x="436" y="1232"/>
      <point x="117" y="1026" type="curve"/>
    </contour>
  </outline>
</glyph>
<glyph name="threesuperior" format="2">
  <advance width="921"/>
  <unicode hex="00B3"/>
  <outline>
    <contour>
      <point x="461" y="896" type="curve" smooth="yes" name=".dv01"/>
      <point x="665" y="896"/>
      <point x="796" y="1009"/>
      <point x="796" y="1186" type="curve" smooth="yes" name=".sh01"/>
      <point x="796" y="1321"/>
      <point x="719" y="1414"/>
      <point x="580" y="1444" type="curve" name=".iv01"/>
      <point x="583" y="1420" type="line"/>
      <point x="684" y="1462"/>
      <point x="741" y="1545"/>
      <point x="741" y="1650" type="curve" smooth="yes" name=".dh04"/>
      <point x="741" y="1796"/>
      <point x="624" y="1900"/>
      <point x="458" y="1900" type="curve" smooth="yes" name=".dv04"/>
      <point x="291" y="1900"/>
      <point x="174" y="1796"/>
      <point x="174" y="1649" type="curve" name=".ih02"/>
      <point x="265" y="1639" type="line" name=".sh02"/>
      <point x="265" y="1739"/>
      <point x="345" y="1810"/>
      <point x="459" y="1810" type="curve" smooth="yes" name=".dv03"/>
      <point x="565" y="1810"/>
      <point x="646" y="1735"/>
      <point x="646" y="1638" type="curve" smooth="yes" name=".dh03"/>
      <point x="646" y="1535"/>
      <point x="583" y="1473"/>
      <point x="474" y="1473" type="curve" smooth="yes"/>
      <point x="413" y="1473" type="line" name=".dv06"/>
      <point x="413" y="1382" type="line" name=".dv05"/>
      <point x="457" y="1382" type="line" smooth="yes"/>
      <point x="613" y="1382"/>
      <point x="703" y="1310"/>
      <point x="703" y="1187" type="curve" smooth="yes" name=".ih01"/>
      <point x="703" y="1069"/>
      <point x="601" y="983"/>
      <point x="462" y="983" type="curve" smooth="yes" name=".dv02"/>
      <point x="320" y="983"/>
      <point x="217" y="1069"/>
      <point x="217" y="1189" type="curve" name=".dh02"/>
      <point x="126" y="1180" type="line" name=".dh01"/>
      <point x="126" y="1006"/>
      <point x="255" y="896"/>
    </contour>
  </outline>
</glyph>
<glyph name="zero.superior" format="2">
  <advance width="921"/>
  <unicode hex="2070"/>
  <outline>
    <contour>
      <point x="467" y="894" type="curve" smooth="yes"/>
      <point x="720" y="894"/>
      <point x="818" y="1184"/>
      <point x="818" y="1393" type="curve" smooth="yes"/>
      <point x="818" y="1609"/>
      <point x="716" y="1900"/>
      <point x="458" y="1900" type="curve" smooth="yes"/>
      <point x="194" y="1900"/>
      <point x="106" y="1615"/>
      <point x="106" y="1396" type="curve" smooth="yes"/>
      <point x="106" y="1172"/>
      <point x="201" y="894"/>
    </contour>
    <contour>
      <point x="463" y="986" type="curve" smooth="yes"/>
      <point x="259" y="986"/>
      <point x="205" y="1235"/>
      <point x="205" y="1396" type="curve" smooth="yes"/>
      <point x="205" y="1552"/>
      <point x="259" y="1804"/>
      <point x="458" y="1804" type="curve" smooth="yes"/>
      <point x="658" y="1804"/>
      <point x="709" y="1553"/>
      <point x="709" y="1397" type="curve" smooth="yes"/>
      <point x="709" y="1246"/>
      <point x="658" y="986"/>
    </contour>
  </outline>
</glyph>
<glyph name="four.superior" format="2">
  <advance width="921"/>
  <unicode hex="2074"/>
  <outline>
    <contour>
      <point x="642" y="932" type="line"/>
      <point x="642" y="1198" type="line"/>
      <point x="796" y="1198" type="line"/>
      <point x="796" y="1283" type="line"/>
      <point x="642" y="1283" type="line"/>
      <point x="642" y="1900" type="line"/>
      <point x="549" y="1900" type="line"/>
      <point x="95" y="1255" type="line"/>
      <point x="95" y="1198" type="line"/>
      <point x="542" y="1198" type="line"/>
      <point x="542" y="932" type="line"/>
    </contour>
    <contour>
      <point x="542" y="1283" type="line"/>
      <point x="203" y="1283" type="line"/>
      <point x="542" y="1755" type="line"/>
    </contour>
  </outline>
</glyph>
<glyph name="five.superior" format="2">
  <advance width="921"/>
  <unicode hex="2075"/>
  <outline>
    <contour>
      <point x="459" y="918" type="curve" smooth="yes"/>
      <point x="643" y="918"/>
      <point x="790" y="1062"/>
      <point x="790" y="1247" type="curve" smooth="yes"/>
      <point x="790" y="1419"/>
      <point x="661" y="1559"/>
      <point x="486" y="1559" type="curve" smooth="yes"/>
      <point x="404" y="1559"/>
      <point x="334" y="1539"/>
      <point x="277" y="1478" type="curve"/>
      <point x="335" y="1813" type="line"/>
      <point x="729" y="1813" type="line"/>
      <point x="729" y="1900" type="line"/>
      <point x="256" y="1900" type="line"/>
      <point x="171" y="1414" type="line"/>
      <point x="257" y="1370" type="line"/>
      <point x="305" y="1444"/>
      <point x="381" y="1475"/>
      <point x="467" y="1475" type="curve" smooth="yes"/>
      <point x="601" y="1475"/>
      <point x="688" y="1379"/>
      <point x="688" y="1247" type="curve" smooth="yes"/>
      <point x="688" y="1109"/>
      <point x="597" y="1005"/>
      <point x="455" y="1005" type="curve" smooth="yes"/>
      <point x="323" y="1005"/>
      <point x="249" y="1085"/>
      <point x="225" y="1212" type="curve"/>
      <point x="135" y="1184" type="line"/>
      <point x="168" y="1023"/>
      <point x="295" y="918"/>
    </contour>
  </outline>
</glyph>
<glyph name="six.superior" format="2">
  <advance width="921"/>
  <unicode hex="2076"/>
  <outline>
    <contour>
      <point x="457" y="918" type="curve" smooth="yes"/>
      <point x="636" y="918"/>
      <point x="778" y="1061"/>
      <point x="778" y="1240" type="curve" smooth="yes"/>
      <point x="778" y="1423"/>
      <point x="638" y="1546"/>
      <point x="459" y="1546" type="curve" smooth="yes"/>
      <point x="416" y="1546"/>
      <point x="372" y="1539"/>
      <point x="328" y="1527" type="curve"/>
      <point x="344" y="1508" type="line"/>
      <point x="572" y="1900" type="line"/>
      <point x="471" y="1900" type="line"/>
      <point x="184" y="1405" type="line" smooth="yes"/>
      <point x="153" y="1351"/>
      <point x="138" y="1298"/>
      <point x="138" y="1237" type="curve" smooth="yes"/>
      <point x="138" y="1061"/>
      <point x="281" y="918"/>
    </contour>
    <contour>
      <point x="458" y="1009" type="curve" smooth="yes"/>
      <point x="333" y="1009"/>
      <point x="235" y="1116"/>
      <point x="235" y="1239" type="curve" smooth="yes"/>
      <point x="235" y="1369"/>
      <point x="327" y="1463"/>
      <point x="458" y="1463" type="curve" smooth="yes"/>
      <point x="586" y="1463"/>
      <point x="682" y="1366"/>
      <point x="682" y="1239" type="curve" smooth="yes"/>
      <point x="682" y="1117"/>
      <point x="582" y="1009"/>
    </contour>
  </outline>
</glyph>
<glyph name="seven.superior" format="2">
  <advance width="921"/>
  <unicode hex="2077"/>
  <outline>
    <contour>
      <point x="357" y="932" type="line"/>
      <point x="771" y="1851" type="line"/>
      <point x="771" y="1900" type="line"/>
      <point x="139" y="1900" type="line"/>
      <point x="139" y="1812" type="line"/>
      <point x="665" y="1812" type="line"/>
      <point x="251" y="932" type="line"/>
    </contour>
  </outline>
</glyph>
<glyph name="eight.superior" format="2">
  <advance width="921"/>
  <unicode hex="2078"/>
  <outline>
    <contour>
      <point x="460" y="896" type="curve" smooth="yes"/>
      <point x="635" y="896"/>
      <point x="793" y="983"/>
      <point x="793" y="1177" type="curve" smooth="yes"/>
      <point x="793" y="1303"/>
      <point x="726" y="1392"/>
      <point x="610" y="1437" type="curve"/>
      <point x="695" y="1481"/>
      <point x="742" y="1557"/>
      <point x="742" y="1652" type="curve" smooth="yes"/>
      <point x="742" y="1811"/>
      <point x="609" y="1900"/>
      <point x="462" y="1900" type="curve" smooth="yes"/>
      <point x="314" y="1900"/>
      <point x="177" y="1813"/>
      <point x="177" y="1652" type="curve" smooth="yes"/>
      <point x="177" y="1555"/>
      <point x="226" y="1481"/>
      <point x="312" y="1437" type="curve"/>
      <point x="194" y="1389"/>
      <point x="125" y="1307"/>
      <point x="125" y="1176" type="curve" smooth="yes"/>
      <point x="125" y="986"/>
      <point x="288" y="896"/>
    </contour>
    <contour>
      <point x="465" y="1466" type="curve" smooth="yes"/>
      <point x="354" y="1466"/>
      <point x="277" y="1534"/>
      <point x="277" y="1647" type="curve" smooth="yes"/>
      <point x="277" y="1749"/>
      <point x="367" y="1814"/>
      <point x="464" y="1814" type="curve" smooth="yes"/>
      <point x="567" y="1814"/>
      <point x="648" y="1746"/>
      <point x="648" y="1638" type="curve" smooth="yes"/>
      <point x="648" y="1535"/>
      <point x="566" y="1466"/>
    </contour>
    <contour>
      <point x="460" y="979" type="curve" smooth="yes"/>
      <point x="335" y="979"/>
      <point x="223" y="1051"/>
      <point x="223" y="1186" type="curve" smooth="yes"/>
      <point x="223" y="1321"/>
      <point x="335" y="1392"/>
      <point x="460" y="1392" type="curve" smooth="yes"/>
      <point x="583" y="1392"/>
      <point x="692" y="1317"/>
      <point x="692" y="1186" type="curve" smooth="yes"/>
      <point x="692" y="1054"/>
      <point x="584" y="979"/>
    </contour>
  </outline>
</glyph>
<glyph name="nine.superior" format="2">
  <advance width="921"/>
  <unicode hex="2079"/>
  <outline>
    <contour>
      <point x="442" y="917" type="line"/>
      <point x="730" y="1414" type="line" smooth="yes"/>
      <point x="760" y="1466"/>
      <point x="775" y="1521"/>
      <point x="775" y="1581" type="curve" smooth="yes"/>
      <point x="775" y="1757"/>
      <point x="631" y="1900"/>
      <point x="456" y="1900" type="curve" smooth="yes"/>
      <point x="276" y="1900"/>
      <point x="135" y="1759"/>
      <point x="135" y="1578" type="curve" smooth="yes"/>
      <point x="135" y="1396"/>
      <point x="264" y="1272"/>
      <point x="453" y="1272" type="curve" smooth="yes"/>
      <point x="502" y="1272"/>
      <point x="545" y="1278"/>
      <point x="583" y="1292" type="curve"/>
      <point x="569" y="1310" type="line"/>
      <point x="343" y="917" type="line"/>
    </contour>
    <contour>
      <point x="455" y="1355" type="curve" smooth="yes"/>
      <point x="327" y="1355"/>
      <point x="231" y="1451"/>
      <point x="231" y="1579" type="curve" smooth="yes"/>
      <point x="231" y="1705"/>
      <point x="332" y="1810"/>
      <point x="455" y="1810" type="curve" smooth="yes"/>
      <point x="575" y="1810"/>
      <point x="677" y="1704"/>
      <point x="677" y="1579" type="curve" smooth="yes"/>
      <point x="677" y="1450"/>
      <point x="583" y="1355"/>
    </contour>
  </outline>
</glyph>
<glyph name="zero.inferior" format="2">
  <advance width="921"/>
  <unicode hex="2080"/>
  <outline>
    <contour>
      <point x="467" y="-508" type="curve" smooth="yes"/>
      <point x="720" y="-508"/>
      <point x="818" y="-218"/>
      <point x="818" y="-9" type="curve" smooth="yes"/>
      <point x="818" y="207"/>
      <point x="716" y="498"/>
      <point x="458" y="498" type="curve" smooth="yes"/>
      <point x="194" y="498"/>
      <point x="106" y="213"/>
      <point x="106" y="-6" type="curve" smooth="yes"/>
      <point x="106" y="-230"/>
      <point x="201" y="-508"/>
    </contour>
    <contour>
      <point x="463" y="-416" type="curve" smooth="yes"/>
      <point x="259" y="-416"/>
      <point x="205" y="-167"/>
      <point x="205" y="-6" type="curve" smooth="yes"/>
      <point x="205" y="150"/>
      <point x="259" y="402"/>
      <point x="458" y="402" type="curve" smooth="yes"/>
      <point x="658" y="402"/>
      <point x="709" y="151"/>
      <point x="709" y="-5" type="curve" smooth="yes"/>
      <point x="709" y="-156"/>
      <point x="658" y="-416"/>
    </contour>
  </outline>
</glyph>
<glyph name="one.inferior" format="2">
  <advance width="921"/>
  <unicode hex="2081"/>
  <outline>
    <contour>
      <point x="575" y="-468" type="line" name=".av01"/>
      <point x="575" y="500" type="line" name=".av02"/>
      <point x="483" y="500" type="line"/>
      <point x="483" y="486" type="line" smooth="yes" name=".av03"/>
      <point x="483" y="410"/>
      <point x="443" y="360"/>
      <point x="359" y="360" type="curve" smooth="yes"/>
      <point x="213" y="360" type="line" name=".dv02"/>
      <point x="213" y="279" type="line" name=".dv01"/>
      <point x="473" y="279" type="line" name=".dh01"/>
      <point x="473" y="-468" type="line"/>
    </contour>
  </outline>
</glyph>
<glyph name="two.inferior" format="2">
  <advance width="921"/>
  <unicode hex="2082"/>
  <outline>
    <contour>
      <point x="117" y="-468" type="line"/>
      <point x="787" y="-468" type="line" name=".dv01"/>
      <point x="787" y="-384" type="line" name=".dv02"/>
      <point x="245" y="-384" type="line" name=".sh03"/>
      <point x="570" y="-179"/>
      <point x="739" y="21"/>
      <point x="739" y="228" type="curve" smooth="yes" name=".sh04"/>
      <point x="739" y="394"/>
      <point x="627" y="500"/>
      <point x="453" y="500" type="curve" smooth="yes" name=".dv04"/>
      <point x="279" y="500"/>
      <point x="162" y="373"/>
      <point x="162" y="184" type="curve" name=".sh01"/>
      <point x="260" y="174" type="line" name=".sh02"/>
      <point x="260" y="316"/>
      <point x="337" y="410"/>
      <point x="457" y="410" type="curve" smooth="yes" name=".dv03"/>
      <point x="569" y="410"/>
      <point x="634" y="340"/>
      <point x="634" y="220" type="curve" smooth="yes" name=".ah01"/>
      <point x="634" y="50"/>
      <point x="436" y="-168"/>
      <point x="117" y="-374" type="curve"/>
    </contour>
  </outline>
</glyph>
<glyph name="three.inferior" format="2">
  <advance width="921"/>
  <unicode hex="2083"/>
  <outline>
    <contour>
      <point x="461" y="-504" type="curve" smooth="yes" name=".dv01"/>
      <point x="665" y="-504"/>
      <point x="796" y="-391"/>
      <point x="796" y="-214" type="curve" smooth="yes" name=".sh01"/>
      <point x="796" y="-79"/>
      <point x="719" y="14"/>
      <point x="580" y="44" type="curve" name=".iv01"/>
      <point x="583" y="20" type="line"/>
      <point x="684" y="62"/>
      <point x="741" y="145"/>
      <point x="741" y="250" type="curve" smooth="yes" name=".dh04"/>
      <point x="741" y="396"/>
      <point x="624" y="500"/>
      <point x="458" y="500" type="curve" smooth="yes" name=".dv04"/>
      <point x="291" y="500"/>
      <point x="174" y="396"/>
      <point x="174" y="249" type="curve" name=".ih02"/>
      <point x="265" y="239" type="line" name=".sh02"/>
      <point x="265" y="339"/>
      <point x="345" y="410"/>
      <point x="459" y="410" type="curve" smooth="yes" name=".dv03"/>
      <point x="565" y="410"/>
      <point x="646" y="335"/>
      <point x="646" y="238" type="curve" smooth="yes" name=".dh03"/>
      <point x="646" y="135"/>
      <point x="583" y="73"/>
      <point x="474" y="73" type="curve" smooth="yes"/>
      <point x="413" y="73" type="line" name=".dv06"/>
      <point x="413" y="-18" type="line" name=".dv05"/>
      <point x="457" y="-18" type="line" smooth="yes"/>
      <point x="613" y="-18"/>
      <point x="703" y="-90"/>
      <point x="703" y="-213" type="curve" smooth="yes" name=".ih01"/>
      <point x="703" y="-331"/>
      <point x="601" y="-417"/>
      <point x="462" y="-417" type="curve" smooth="yes" name=".dv02"/>
      <point x="320" y="-417"/>
      <point x="217" y="-331"/>
      <point x="217" y="-211" type="curve" name=".dh02"/>
      <point x="126" y="-220" type="line" name=".dh01"/>
      <point x="126" y="-394"/>
      <point x="255" y="-504"/>
    </contour>
  </outline>
</glyph>
<glyph name="four.inferior" format="2">
  <advance width="921"/>
  <unicode hex="2084"/>
  <outline>
    <contour>
      <point x="642" y="-468" type="line"/>
      <point x="642" y="-202" type="line"/>
      <point x="796" y="-202" type="line"/>
      <point x="796" y="-117" type="line"/>
      <point x="642" y="-117" type="line"/>
      <point x="642" y="500" type="line"/>
      <point x="549" y="500" type="line"/>
      <point x="95" y="-145" type="line"/>
      <point x="95" y="-202" type="line"/>
      <point x="542" y="-202" type="line"/>
      <point x="542" y="-468" type="line"/>
    </contour>
    <contour>
      <point x="542" y="-117" type="line"/>
      <point x="203" y="-117" type="line"/>
      <point x="542" y="355" type="line"/>
    </contour>
  </outline>
</glyph>
<glyph name="five.inferior" format="2">
  <advance width="921"/>
  <unicode hex="2085"/>
  <outline>
    <contour>
      <point x="459" y="-482" type="curve" smooth="yes"/>
      <point x="643" y="-482"/>
      <point x="790" y="-338"/>
      <point x="790" y="-153" type="curve" smooth="yes"/>
      <point x="790" y="19"/>
      <point x="661" y="159"/>
      <point x="486" y="159" type="curve" smooth="yes"/>
      <point x="404" y="159"/>
      <point x="334" y="139"/>
      <point x="277" y="78" type="curve"/>
      <point x="335" y="413" type="line"/>
      <point x="729" y="413" type="line"/>
      <point x="729" y="500" type="line"/>
      <point x="256" y="500" type="line"/>
      <point x="171" y="14" type="line"/>
      <point x="257" y="-30" type="line"/>
      <point x="305" y="44"/>
      <point x="381" y="75"/>
      <point x="467" y="75" type="curve" smooth="yes"/>
      <point x="601" y="75"/>
      <point x="688" y="-21"/>
      <point x="688" y="-153" type="curve" smooth="yes"/>
      <point x="688" y="-291"/>
      <point x="597" y="-395"/>
      <point x="455" y="-395" type="curve" smooth="yes"/>
      <point x="323" y="-395"/>
      <point x="249" y="-315"/>
      <point x="225" y="-188" type="curve"/>
      <point x="135" y="-216" type="line"/>
      <point x="168" y="-377"/>
      <point x="295" y="-482"/>
    </contour>
  </outline>
</glyph>
<glyph name="seven.inferior" format="2">
  <advance width="921"/>
  <unicode hex="2087"/>
  <outline>
    <contour>
      <point x="357" y="-468" type="line"/>
      <point x="771" y="451" type="line"/>
      <point x="771" y="500" type="line"/>
      <point x="139" y="500" type="line"/>
      <point x="139" y="412" type="line"/>
      <point x="665" y="412" type="line"/>
      <point x="251" y="-468" type="line"/>
    </contour>
  </outline>
</glyph>
<glyph name="eight.inferior" format="2">
  <advance width="921"/>
  <unicode hex="2088"/>
  <outline>
    <contour>
      <point x="460" y="-504" type="curve" smooth="yes"/>
      <point x="635" y="-504"/>
      <point x="793" y="-417"/>
      <point x="793" y="-223" type="curve" smooth="yes"/>
      <point x="793" y="-97"/>
      <point x="726" y="-8"/>
      <point x="610" y="37" type="curve"/>
      <point x="695" y="81"/>
      <point x="742" y="157"/>
      <point x="742" y="252" type="curve" smooth="yes"/>
      <point x="742" y="411"/>
      <point x="609" y="500"/>
      <point x="462" y="500" type="curve" smooth="yes"/>
      <point x="314" y="500"/>
      <point x="177" y="413"/>
      <point x="177" y="252" type="curve" smooth="yes"/>
      <point x="177" y="155"/>
      <point x="226" y="81"/>
      <point x="312" y="37" type="curve"/>
      <point x="194" y="-11"/>
      <point x="125" y="-93"/>
      <point x="125" y="-224" type="curve" smooth="yes"/>
      <point x="125" y="-414"/>
      <point x="288" y="-504"/>
    </contour>
    <contour>
      <point x="465" y="66" type="curve" smooth="yes"/>
      <point x="354" y="66"/>
      <point x="277" y="134"/>
      <point x="277" y="247" type="curve" smooth="yes"/>
      <point x="277" y="349"/>
      <point x="367" y="414"/>
      <point x="464" y="414" type="curve" smooth="yes"/>
      <point x="567" y="414"/>
      <point x="648" y="346"/>
      <point x="648" y="238" type="curve" smooth="yes"/>
      <point x="648" y="135"/>
      <point x="566" y="66"/>
    </contour>
    <contour>
      <point x="460" y="-421" type="curve" smooth="yes"/>
      <point x="335" y="-421"/>
      <point x="223" y="-349"/>
      <point x="223" y="-214" type="curve" smooth="yes"/>
      <point x="223" y="-79"/>
      <point x="335" y="-8"/>
      <point x="460" y="-8" type="curve" smooth="yes"/>
      <point x="583" y="-8"/>
      <point x="692" y="-83"/>
      <point x="692" y="-214" type="curve" smooth="yes"/>
      <point x="692" y="-346"/>
      <point x="584" y="-421"/>
    </contour>
  </outline>
</glyph>
<glyph name="brevecomb_gravecomb.case" format="2">
  <anchor x="-429" y="1192" name="_top"/>
  <outline>
    <contour>
      <point x="-429" y="1192" type="curve" smooth="yes"/>
      <point x="-258" y="1192"/>
      <point x="-118" y="1252"/>
      <point x="-118" y="1375" type="curve"/>
      <point x="-248" y="1375" type="line"/>
      <point x="-248" y="1307"/>
      <point x="-331" y="1264"/>
      <point x="-429" y="1264" type="curve" smooth="yes"/>
      <point x="-525" y="1264"/>
      <point x="-612" y="1308"/>
      <point x="-612" y="1375" type="curve"/>
      <point x="-741" y="1375" type="line"/>
      <point x="-741" y="1254"/>
      <point x="-599" y="1192"/>
    </contour>
    <contour>
      <point x="-500" y="1376" type="line"/>
      <point x="-366" y="1376" type="line"/>
      <point x="-531" y="1523" type="line"/>
      <point x="-710" y="1523" type="line"/>
    </contour>
  </outline>
</glyph>
<glyph name="brevecomb_hookabovecomb.case" format="2">
  <anchor x="-429" y="1192" name="_top"/>
  <outline>
    <contour>
      <point x="-429" y="1192" type="curve" smooth="yes"/>
      <point x="-258" y="1192"/>
      <point x="-118" y="1252"/>
      <point x="-118" y="1375" type="curve"/>
      <point x="-248" y="1375" type="line"/>
      <point x="-248" y="1307"/>
      <point x="-331" y="1264"/>
      <point x="-429" y="1264" type="curve" smooth="yes"/>
      <point x="-525" y="1264"/>
      <point x="-612" y="1308"/>
      <point x="-612" y="1375" type="curve"/>
      <point x="-741" y="1375" type="line"/>
      <point x="-741" y="1254"/>
      <point x="-599" y="1192"/>
    </contour>
    <contour>
      <point x="-515" y="1356" type="line" name=".av01"/>
      <point x="-332" y="1377"/>
      <point x="-262" y="1413"/>
      <point x="-262" y="1486" type="curve" smooth="yes" name=".dh01"/>
      <point x="-262" y="1573"/>
      <point x="-382" y="1624"/>
      <point x="-585" y="1624" type="curve" smooth="yes"/>
      <point x="-597" y="1624" type="line" name=".dv02"/>
      <point x="-597" y="1562" type="line" name=".dv01"/>
      <point x="-443" y="1562"/>
      <point x="-367" y="1535"/>
      <point x="-367" y="1480" type="curve" smooth="yes" name=".sh01"/>
      <point x="-367" y="1436"/>
      <point x="-420" y="1410"/>
      <point x="-532" y="1398" type="curve"/>
    </contour>
  </outline>
</glyph>
<glyph name="circumflexcomb_acutecomb.case" format="2">
  <anchor x="-395" y="1212" name="_top"/>
  <outline>
    <contour>
      <point x="-732" y="1192" type="line"/>
      <point x="-574" y="1192" type="line"/>
      <point x="-395" y="1325" type="line"/>
      <point x="-213" y="1192" type="line"/>
      <point x="-58" y="1192" type="line"/>
      <point x="-395" y="1432" type="line"/>
    </contour>
    <contour>
      <point x="-88" y="1337" type="line"/>
      <point x="122" y="1485" type="line"/>
      <point x="-57" y="1485" type="line"/>
      <point x="-223" y="1337" type="line"/>
    </contour>
  </outline>
</glyph>
<glyph name="circumflexcomb_hookabovecomb.case" format="2">
  <anchor x="-395" y="1212" name="_top"/>
  <outline>
    <contour>
      <point x="-732" y="1192" type="line"/>
      <point x="-574" y="1192" type="line"/>
      <point x="-395" y="1325" type="line"/>
      <point x="-213" y="1192" type="line"/>
      <point x="-58" y="1192" type="line"/>
      <point x="-395" y="1432" type="line"/>
    </contour>
    <contour>
      <point x="-159" y="1283" type="line" name=".av01"/>
      <point x="24" y="1304"/>
      <point x="94" y="1340"/>
      <point x="94" y="1413" type="curve" smooth="yes" name=".dh01"/>
      <point x="94" y="1500"/>
      <point x="-26" y="1551"/>
      <point x="-229" y="1551" type="curve" smooth="yes"/>
      <point x="-241" y="1551" type="line" name=".dv02"/>
      <point x="-241" y="1489" type="line" name=".dv01"/>
      <point x="-87" y="1489"/>
      <point x="-11" y="1462"/>
      <point x="-11" y="1407" type="curve" smooth="yes" name=".sh01"/>
      <point x="-11" y="1363"/>
      <point x="-64" y="1337"/>
      <point x="-176" y="1325" type="curve"/>
    </contour>
  </outline>
</glyph>
<glyph name="circumflexcomb_tildecomb.case" format="2">
  <anchor x="-395" y="1212" name="_top"/>
  <outline>
    <contour>
      <point x="-732" y="1192" type="line"/>
      <point x="-574" y="1192" type="line"/>
      <point x="-395" y="1325" type="line"/>
      <point x="-213" y="1192" type="line"/>
      <point x="-58" y="1192" type="line"/>
      <point x="-395" y="1432" type="line"/>
    </contour>
    <contour>
      <point x="-596" y="1431" type="line"/>
      <point x="-527" y="1431" type="line"/>
      <point x="-527" y="1462" type="line" smooth="yes"/>
      <point x="-527" y="1487"/>
      <point x="-509" y="1501"/>
      <point x="-475" y="1501" type="curve" smooth="yes"/>
      <point x="-445" y="1501"/>
      <point x="-422" y="1489"/>
      <point x="-397" y="1472" type="curve"/>
      <point x="-389" y="1467" type="line"/>
      <point x="-345" y="1507" type="line"/>
      <point x="-352" y="1512" type="line"/>
      <point x="-397" y="1542"/>
      <point x="-430" y="1554"/>
      <point x="-480" y="1554" type="curve" smooth="yes"/>
      <point x="-548" y="1554"/>
      <point x="-596" y="1522"/>
      <point x="-596" y="1469" type="curve" smooth="yes"/>
    </contour>
    <contour>
      <point x="-145" y="1548" type="line"/>
      <point x="-214" y="1548" type="line"/>
      <point x="-214" y="1517" type="line" smooth="yes"/>
      <point x="-214" y="1492"/>
      <point x="-232" y="1478"/>
      <point x="-266" y="1478" type="curve" smooth="yes"/>
      <point x="-296" y="1478"/>
      <point x="-319" y="1490"/>
      <point x="-344" y="1507" type="curve"/>
      <point x="-352" y="1512" type="line"/>
      <point x="-396" y="1472" type="line"/>
      <point x="-389" y="1467" type="line"/>
      <point x="-344" y="1437"/>
      <point x="-311" y="1425"/>
      <point x="-261" y="1425" type="curve" smooth="yes"/>
      <point x="-193" y="1425"/>
      <point x="-145" y="1457"/>
      <point x="-145" y="1510" type="curve" smooth="yes"/>
    </contour>
  </outline>
</glyph>
<glyph name="dieresiscomb_acutecomb.case" format="2">
  <anchor x="-426" y="1192" name="_top"/>
  <outline>
    <contour>
      <point x="-678" y="1192" type="line"/>
      <point x="-516" y="1192" type="line"/>
      <point x="-516" y="1316" type="line"/>
      <point x="-678" y="1316" type="line"/>
    </contour>
    <contour>
      <point x="-336" y="1192" type="line"/>
      <point x="-174" y="1192" type="line"/>
      <point x="-174" y="1316" type="line"/>
      <point x="-336" y="1316" type="line"/>
    </contour>
    <contour>
      <point x="-377" y="1363" type="line"/>
      <point x="-113" y="1559" type="line"/>
      <point x="-292" y="1559" type="line"/>
      <point x="-511" y="1363" type="line"/>
    </contour>
  </outline>
</glyph>
<glyph name="dieresiscomb_caroncomb.case" format="2">
  <anchor x="-426" y="1192" name="_top"/>
  <outline>
    <contour>
      <point x="-678" y="1193" type="line"/>
      <point x="-516" y="1193" type="line"/>
      <point x="-516" y="1317" type="line"/>
      <point x="-678" y="1317" type="line"/>
    </contour>
    <contour>
      <point x="-336" y="1193" type="line"/>
      <point x="-174" y="1193" type="line"/>
      <point x="-174" y="1317" type="line"/>
      <point x="-336" y="1317" type="line"/>
    </contour>
    <contour>
      <point x="-425" y="1333" type="line"/>
      <point x="-89" y="1557" type="line"/>
      <point x="-244" y="1557" type="line"/>
      <point x="-425" y="1427" type="line"/>
      <point x="-605" y="1557" type="line"/>
      <point x="-762" y="1557" type="line"/>
    </contour>
  </outline>
</glyph>
<glyph name="dieresiscomb_gravecomb.case" format="2">
  <anchor x="-426" y="1192" name="_top"/>
  <outline>
    <contour>
      <point x="-358" y="1344" type="line"/>
      <point x="-577" y="1540" type="line"/>
      <point x="-756" y="1540" type="line"/>
      <point x="-492" y="1344" type="line"/>
    </contour>
    <contour>
      <point x="-682" y="1192" type="line"/>
      <point x="-520" y="1192" type="line"/>
      <point x="-520" y="1316" type="line"/>
      <point x="-682" y="1316" type="line"/>
    </contour>
    <contour>
      <point x="-340" y="1192" type="line"/>
      <point x="-178" y="1192" type="line"/>
      <point x="-178" y="1316" type="line"/>
      <point x="-340" y="1316" type="line"/>
    </contour>
  </outline>
</glyph>
<glyph name="eight.dnom" format="2">
  <advance width="921"/>
  <outline>
    <contour>
      <point x="460" y="-10" type="curve" smooth="yes"/>
      <point x="635" y="-10"/>
      <point x="793" y="77"/>
      <point x="793" y="271" type="curve" smooth="yes"/>
      <point x="793" y="397"/>
      <point x="726" y="486"/>
      <point x="610" y="531" type="curve"/>
      <point x="695" y="575"/>
      <point x="742" y="651"/>
      <point x="742" y="746" type="curve" smooth="yes"/>
      <point x="742" y="905"/>
      <point x="609" y="993"/>
      <point x="462" y="993" type="curve" smooth="yes"/>
      <point x="314" y="993"/>
      <point x="177" y="907"/>
      <point x="177" y="746" type="curve" smooth="yes"/>
      <point x="177" y="649"/>
      <point x="226" y="575"/>
      <point x="312" y="531" type="curve"/>
      <point x="194" y="483"/>
      <point x="125" y="400"/>
      <point x="125" y="269" type="curve" smooth="yes"/>
      <point x="125" y="79"/>
      <point x="288" y="-10"/>
    </contour>
    <contour>
      <point x="465" y="559" type="curve" smooth="yes"/>
      <point x="354" y="559"/>
      <point x="277" y="628"/>
      <point x="277" y="741" type="curve" smooth="yes"/>
      <point x="277" y="843"/>
      <point x="367" y="907"/>
      <point x="464" y="907" type="curve" smooth="yes"/>
      <point x="567" y="907"/>
      <point x="648" y="839"/>
      <point x="648" y="731" type="curve" smooth="yes"/>
      <point x="648" y="628"/>
      <point x="566" y="559"/>
    </contour>
    <contour>
      <point x="460" y="73" type="curve" smooth="yes"/>
      <point x="335" y="73"/>
      <point x="223" y="145"/>
      <point x="223" y="280" type="curve" smooth="yes"/>
      <point x="223" y="415"/>
      <point x="335" y="486"/>
      <point x="460" y="486" type="curve" smooth="yes"/>
      <point x="583" y="486"/>
      <point x="692" y="411"/>
      <point x="692" y="280" type="curve" smooth="yes"/>
      <point x="692" y="148"/>
      <point x="584" y="73"/>
    </contour>
  </outline>
</glyph>
<glyph name="eight.numr" format="2">
  <advance width="921"/>
  <outline>
    <contour>
      <point x="460" y="482" type="curve" smooth="yes"/>
      <point x="635" y="482"/>
      <point x="793" y="569"/>
      <point x="793" y="763" type="curve" smooth="yes"/>
      <point x="793" y="889"/>
      <point x="726" y="978"/>
      <point x="610" y="1023" type="curve"/>
      <point x="695" y="1067"/>
      <point x="742" y="1143"/>
      <point x="742" y="1238" type="curve" smooth="yes"/>
      <point x="742" y="1397"/>
      <point x="609" y="1486"/>
      <point x="462" y="1486" type="curve" smooth="yes"/>
      <point x="314" y="1486"/>
      <point x="177" y="1399"/>
      <point x="177" y="1238" type="curve" smooth="yes"/>
      <point x="177" y="1141"/>
      <point x="226" y="1067"/>
      <point x="312" y="1023" type="curve"/>
      <point x="194" y="975"/>
      <point x="125" y="893"/>
      <point x="125" y="762" type="curve" smooth="yes"/>
      <point x="125" y="572"/>
      <point x="288" y="482"/>
    </contour>
    <contour>
      <point x="465" y="1052" type="curve" smooth="yes"/>
      <point x="354" y="1052"/>
      <point x="277" y="1120"/>
      <point x="277" y="1233" type="curve" smooth="yes"/>
      <point x="277" y="1335"/>
      <point x="367" y="1400"/>
      <point x="464" y="1400" type="curve" smooth="yes"/>
      <point x="567" y="1400"/>
      <point x="648" y="1332"/>
      <point x="648" y="1224" type="curve" smooth="yes"/>
      <point x="648" y="1121"/>
      <point x="566" y="1052"/>
    </contour>
    <contour>
      <point x="460" y="565" type="curve" smooth="yes"/>
      <point x="335" y="565"/>
      <point x="223" y="637"/>
      <point x="223" y="772" type="curve" smooth="yes"/>
      <point x="223" y="907"/>
      <point x="335" y="978"/>
      <point x="460" y="978" type="curve" smooth="yes"/>
      <point x="583" y="978"/>
      <point x="692" y="903"/>
      <point x="692" y="772" type="curve" smooth="yes"/>
      <point x="692" y="640"/>
      <point x="584" y="565"/>
    </contour>
  </outline>
</glyph>
<glyph name="five.dnom" format="2">
  <advance width="921"/>
  <outline>
    <contour>
      <point x="459" y="-10" type="curve" smooth="yes"/>
      <point x="643" y="-10"/>
      <point x="790" y="134"/>
      <point x="790" y="319" type="curve" smooth="yes"/>
      <point x="790" y="491"/>
      <point x="661" y="631"/>
      <point x="486" y="631" type="curve" smooth="yes"/>
      <point x="404" y="631"/>
      <point x="334" y="610"/>
      <point x="277" y="549" type="curve"/>
      <point x="335" y="885" type="line"/>
      <point x="729" y="885" type="line"/>
      <point x="729" y="972" type="line"/>
      <point x="256" y="972" type="line"/>
      <point x="171" y="486" type="line"/>
      <point x="257" y="442" type="line"/>
      <point x="305" y="516"/>
      <point x="381" y="547"/>
      <point x="467" y="547" type="curve" smooth="yes"/>
      <point x="601" y="547"/>
      <point x="688" y="451"/>
      <point x="688" y="319" type="curve" smooth="yes"/>
      <point x="688" y="181"/>
      <point x="597" y="77"/>
      <point x="455" y="77" type="curve" smooth="yes"/>
      <point x="323" y="77"/>
      <point x="249" y="157"/>
      <point x="225" y="284" type="curve"/>
      <point x="135" y="255" type="line"/>
      <point x="168" y="94"/>
      <point x="295" y="-10"/>
    </contour>
  </outline>
</glyph>
<glyph name="five.numr" format="2">
  <advance width="921"/>
  <outline>
    <contour>
      <point x="459" y="486" type="curve" smooth="yes"/>
      <point x="643" y="486"/>
      <point x="790" y="630"/>
      <point x="790" y="815" type="curve" smooth="yes"/>
      <point x="790" y="987"/>
      <point x="661" y="1127"/>
      <point x="486" y="1127" type="curve" smooth="yes"/>
      <point x="404" y="1127"/>
      <point x="334" y="1107"/>
      <point x="277" y="1046" type="curve"/>
      <point x="335" y="1381" type="line"/>
      <point x="729" y="1381" type="line"/>
      <point x="729" y="1468" type="line"/>
      <point x="256" y="1468" type="line"/>
      <point x="171" y="982" type="line"/>
      <point x="257" y="938" type="line"/>
      <point x="305" y="1012"/>
      <point x="381" y="1043"/>
      <point x="467" y="1043" type="curve" smooth="yes"/>
      <point x="601" y="1043"/>
      <point x="688" y="947"/>
      <point x="688" y="815" type="curve" smooth="yes"/>
      <point x="688" y="677"/>
      <point x="597" y="573"/>
      <point x="455" y="573" type="curve" smooth="yes"/>
      <point x="323" y="573"/>
      <point x="249" y="653"/>
      <point x="225" y="780" type="curve"/>
      <point x="135" y="752" type="line"/>
      <point x="168" y="591"/>
      <point x="295" y="486"/>
    </contour>
  </outline>
</glyph>
<glyph name="four.dnom" format="2">
  <advance width="921"/>
  <outline>
    <contour>
      <point x="642" y="0" type="line"/>
      <point x="642" y="266" type="line"/>
      <point x="796" y="266" type="line"/>
      <point x="796" y="351" type="line"/>
      <point x="642" y="351" type="line"/>
      <point x="642" y="969" type="line"/>
      <point x="549" y="969" type="line"/>
      <point x="95" y="323" type="line"/>
      <point x="95" y="266" type="line"/>
      <point x="542" y="266" type="line"/>
      <point x="542" y="0" type="line"/>
    </contour>
    <contour>
      <point x="542" y="351" type="line"/>
      <point x="203" y="351" type="line"/>
      <point x="542" y="823" type="line"/>
    </contour>
  </outline>
</glyph>
<glyph name="four.numr" format="2">
  <advance width="921"/>
  <outline>
    <contour>
      <point x="642" y="500" type="line"/>
      <point x="642" y="766" type="line"/>
      <point x="796" y="766" type="line"/>
      <point x="796" y="851" type="line"/>
      <point x="642" y="851" type="line"/>
      <point x="642" y="1468" type="line"/>
      <point x="549" y="1468" type="line"/>
      <point x="95" y="823" type="line"/>
      <point x="95" y="766" type="line"/>
      <point x="542" y="766" type="line"/>
      <point x="542" y="500" type="line"/>
    </contour>
    <contour>
      <point x="542" y="851" type="line"/>
      <point x="203" y="851" type="line"/>
      <point x="542" y="1323" type="line"/>
    </contour>
  </outline>
</glyph>
<glyph name="nine.dnom" format="2">
  <advance width="921"/>
  <outline>
    <contour>
      <point x="442" y="0" type="line"/>
      <point x="730" y="497" type="line" smooth="yes"/>
      <point x="760" y="549"/>
      <point x="775" y="604"/>
      <point x="775" y="664" type="curve" smooth="yes"/>
      <point x="775" y="840"/>
      <point x="631" y="983"/>
      <point x="456" y="983" type="curve" smooth="yes"/>
      <point x="276" y="983"/>
      <point x="135" y="841"/>
      <point x="135" y="660" type="curve" smooth="yes"/>
      <point x="135" y="478"/>
      <point x="264" y="354"/>
      <point x="453" y="354" type="curve" smooth="yes"/>
      <point x="502" y="354"/>
      <point x="545" y="360"/>
      <point x="583" y="374" type="curve"/>
      <point x="569" y="392" type="line"/>
      <point x="343" y="0" type="line"/>
    </contour>
    <contour>
      <point x="455" y="437" type="curve" smooth="yes"/>
      <point x="327" y="437"/>
      <point x="231" y="534"/>
      <point x="231" y="662" type="curve" smooth="yes"/>
      <point x="231" y="788"/>
      <point x="332" y="893"/>
      <point x="455" y="893" type="curve" smooth="yes"/>
      <point x="575" y="893"/>
      <point x="677" y="787"/>
      <point x="677" y="662" type="curve" smooth="yes"/>
      <point x="677" y="533"/>
      <point x="583" y="437"/>
    </contour>
  </outline>
</glyph>
<glyph name="nine.numr" format="2">
  <advance width="921"/>
  <outline>
    <contour>
      <point x="442" y="500" type="line"/>
      <point x="730" y="996" type="line" smooth="yes"/>
      <point x="760" y="1048"/>
      <point x="775" y="1103"/>
      <point x="775" y="1163" type="curve" smooth="yes"/>
      <point x="775" y="1339"/>
      <point x="631" y="1483"/>
      <point x="456" y="1483" type="curve" smooth="yes"/>
      <point x="276" y="1483"/>
      <point x="135" y="1341"/>
      <point x="135" y="1160" type="curve" smooth="yes"/>
      <point x="135" y="978"/>
      <point x="264" y="854"/>
      <point x="453" y="854" type="curve" smooth="yes"/>
      <point x="502" y="854"/>
      <point x="545" y="860"/>
      <point x="583" y="874" type="curve"/>
      <point x="569" y="892" type="line"/>
      <point x="343" y="500" type="line"/>
    </contour>
    <contour>
      <point x="455" y="937" type="curve" smooth="yes"/>
      <point x="327" y="937"/>
      <point x="231" y="1033"/>
      <point x="231" y="1161" type="curve" smooth="yes"/>
      <point x="231" y="1287"/>
      <point x="332" y="1393"/>
      <point x="455" y="1393" type="curve" smooth="yes"/>
      <point x="575" y="1393"/>
      <point x="677" y="1286"/>
      <point x="677" y="1161" type="curve" smooth="yes"/>
      <point x="677" y="1032"/>
      <point x="583" y="937"/>
    </contour>
  </outline>
</glyph>
<glyph name="one.dnom" format="2">
  <advance width="921"/>
  <outline>
    <contour>
      <point x="575" y="0" type="line" name=".av01"/>
      <point x="575" y="968" type="line" name=".av02"/>
      <point x="483" y="968" type="line"/>
      <point x="483" y="954" type="line" smooth="yes" name=".av03"/>
      <point x="483" y="878"/>
      <point x="443" y="828"/>
      <point x="359" y="828" type="curve" smooth="yes"/>
      <point x="213" y="828" type="line" name=".dv02"/>
      <point x="213" y="747" type="line" name=".dv01"/>
      <point x="473" y="747" type="line" name=".dh01"/>
      <point x="473" y="0" type="line"/>
    </contour>
  </outline>
</glyph>
<glyph name="one.numr" format="2">
  <advance width="921"/>
  <outline>
    <contour>
      <point x="575" y="500" type="line" name=".av01"/>
      <point x="575" y="1468" type="line" name=".av02"/>
      <point x="483" y="1468" type="line"/>
      <point x="483" y="1454" type="line" smooth="yes" name=".av03"/>
      <point x="483" y="1378"/>
      <point x="443" y="1328"/>
      <point x="359" y="1328" type="curve" smooth="yes"/>
      <point x="213" y="1328" type="line" name=".dv02"/>
      <point x="213" y="1247" type="line" name=".dv01"/>
      <point x="473" y="1247" type="line" name=".dh01"/>
      <point x="473" y="500" type="line"/>
    </contour>
  </outline>
</glyph>
<glyph name="ringcomb_acutecomb.case" format="2">
  <anchor x="-325" y="1197" name="_center"/>
  <outline>
    <contour>
      <point x="-325" y="1064" type="curve" smooth="yes"/>
      <point x="-207" y="1064"/>
      <point x="-124" y="1119"/>
      <point x="-124" y="1198" type="curve" smooth="yes"/>
      <point x="-124" y="1276"/>
      <point x="-207" y="1331"/>
      <point x="-325" y="1331" type="curve" smooth="yes"/>
      <point x="-443" y="1331"/>
      <point x="-526" y="1276"/>
      <point x="-526" y="1198" type="curve" smooth="yes"/>
      <point x="-526" y="1119"/>
      <point x="-443" y="1064"/>
    </contour>
    <contour>
      <point x="-325" y="1130" type="curve" smooth="yes"/>
      <point x="-383" y="1130"/>
      <point x="-427" y="1159"/>
      <point x="-427" y="1198" type="curve" smooth="yes"/>
      <point x="-427" y="1236"/>
      <point x="-383" y="1266"/>
      <point x="-325" y="1266" type="curve" smooth="yes"/>
      <point x="-267" y="1266"/>
      <point x="-222" y="1236"/>
      <point x="-222" y="1198" type="curve" smooth="yes"/>
      <point x="-222" y="1159"/>
      <point x="-267" y="1130"/>
    </contour>
    <contour>
      <point x="-287" y="1346" type="line"/>
      <point x="-23" y="1542" type="line"/>
      <point x="-202" y="1542" type="line"/>
      <point x="-421" y="1346" type="line"/>
    </contour>
  </outline>
</glyph>
<glyph name="six.dnom" format="2">
  <advance width="921"/>
  <outline>
    <contour>
      <point x="457" y="-10" type="curve" smooth="yes"/>
      <point x="636" y="-10"/>
      <point x="778" y="132"/>
      <point x="778" y="311" type="curve" smooth="yes"/>
      <point x="778" y="494"/>
      <point x="638" y="617"/>
      <point x="459" y="617" type="curve" smooth="yes"/>
      <point x="416" y="617"/>
      <point x="372" y="611"/>
      <point x="328" y="599" type="curve"/>
      <point x="344" y="580" type="line"/>
      <point x="572" y="972" type="line"/>
      <point x="471" y="972" type="line"/>
      <point x="184" y="476" type="line" smooth="yes"/>
      <point x="153" y="422"/>
      <point x="138" y="369"/>
      <point x="138" y="308" type="curve" smooth="yes"/>
      <point x="138" y="132"/>
      <point x="281" y="-10"/>
    </contour>
    <contour>
      <point x="458" y="80" type="curve" smooth="yes"/>
      <point x="333" y="80"/>
      <point x="235" y="187"/>
      <point x="235" y="310" type="curve" smooth="yes"/>
      <point x="235" y="440"/>
      <point x="327" y="534"/>
      <point x="458" y="534" type="curve" smooth="yes"/>
      <point x="586" y="534"/>
      <point x="682" y="437"/>
      <point x="682" y="310" type="curve" smooth="yes"/>
      <point x="682" y="188"/>
      <point x="582" y="80"/>
    </contour>
  </outline>
</glyph>
<glyph name="six.numr" format="2">
  <advance width="921"/>
  <outline>
    <contour>
      <point x="457" y="486" type="curve" smooth="yes"/>
      <point x="636" y="486"/>
      <point x="778" y="629"/>
      <point x="778" y="808" type="curve" smooth="yes"/>
      <point x="778" y="991"/>
      <point x="638" y="1114"/>
      <point x="459" y="1114" type="curve" smooth="yes"/>
      <point x="416" y="1114"/>
      <point x="372" y="1107"/>
      <point x="328" y="1095" type="curve"/>
      <point x="344" y="1076" type="line"/>
      <point x="572" y="1468" type="line"/>
      <point x="471" y="1468" type="line"/>
      <point x="184" y="973" type="line" smooth="yes"/>
      <point x="153" y="919"/>
      <point x="138" y="866"/>
      <point x="138" y="805" type="curve" smooth="yes"/>
      <point x="138" y="629"/>
      <point x="281" y="486"/>
    </contour>
    <contour>
      <point x="458" y="577" type="curve" smooth="yes"/>
      <point x="333" y="577"/>
      <point x="235" y="684"/>
      <point x="235" y="807" type="curve" smooth="yes"/>
      <point x="235" y="937"/>
      <point x="327" y="1031"/>
      <point x="458" y="1031" type="curve" smooth="yes"/>
      <point x="586" y="1031"/>
      <point x="682" y="934"/>
      <point x="682" y="807" type="curve" smooth="yes"/>
      <point x="682" y="685"/>
      <point x="582" y="577"/>
    </contour>
  </outline>
</glyph>
<glyph name="three.dnom" format="2">
  <advance width="921"/>
  <outline>
    <contour>
      <point x="461" y="-10" type="curve" smooth="yes" name=".dv01"/>
      <point x="665" y="-10"/>
      <point x="796" y="103"/>
      <point x="796" y="280" type="curve" smooth="yes" name=".sh01"/>
      <point x="796" y="415"/>
      <point x="719" y="507"/>
      <point x="580" y="537" type="curve" name=".iv01"/>
      <point x="583" y="514" type="line"/>
      <point x="684" y="556"/>
      <point x="741" y="638"/>
      <point x="741" y="743" type="curve" smooth="yes" name=".dh04"/>
      <point x="741" y="889"/>
      <point x="624" y="993"/>
      <point x="458" y="993" type="curve" smooth="yes" name=".dv04"/>
      <point x="291" y="993"/>
      <point x="174" y="889"/>
      <point x="174" y="742" type="curve" name=".ih02"/>
      <point x="265" y="732" type="line" name=".sh02"/>
      <point x="265" y="832"/>
      <point x="345" y="903"/>
      <point x="459" y="903" type="curve" smooth="yes" name=".dv03"/>
      <point x="565" y="903"/>
      <point x="646" y="828"/>
      <point x="646" y="731" type="curve" smooth="yes" name=".dh03"/>
      <point x="646" y="628"/>
      <point x="583" y="566"/>
      <point x="474" y="566" type="curve" smooth="yes"/>
      <point x="413" y="566" type="line" name=".dv06"/>
      <point x="413" y="475" type="line" name=".dv05"/>
      <point x="457" y="475" type="line" smooth="yes"/>
      <point x="613" y="475"/>
      <point x="703" y="404"/>
      <point x="703" y="281" type="curve" smooth="yes" name=".ih01"/>
      <point x="703" y="163"/>
      <point x="601" y="77"/>
      <point x="462" y="77" type="curve" smooth="yes" name=".dv02"/>
      <point x="320" y="77"/>
      <point x="217" y="163"/>
      <point x="217" y="283" type="curve" name=".dh02"/>
      <point x="126" y="273" type="line" name=".dh01"/>
      <point x="126" y="99"/>
      <point x="255" y="-10"/>
    </contour>
  </outline>
</glyph>
<glyph name="three.numr" format="2">
  <advance width="921"/>
  <outline>
    <contour>
      <point x="461" y="482" type="curve" smooth="yes" name=".dv01"/>
      <point x="665" y="482"/>
      <point x="796" y="595"/>
      <point x="796" y="772" type="curve" smooth="yes" name=".sh01"/>
      <point x="796" y="907"/>
      <point x="719" y="1000"/>
      <point x="580" y="1030" type="curve" name=".iv01"/>
      <point x="583" y="1006" type="line"/>
      <point x="684" y="1048"/>
      <point x="741" y="1131"/>
      <point x="741" y="1236" type="curve" smooth="yes" name=".dh04"/>
      <point x="741" y="1382"/>
      <point x="624" y="1486"/>
      <point x="458" y="1486" type="curve" smooth="yes" name=".dv04"/>
      <point x="291" y="1486"/>
      <point x="174" y="1382"/>
      <point x="174" y="1235" type="curve" name=".ih02"/>
      <point x="265" y="1225" type="line" name=".sh02"/>
      <point x="265" y="1325"/>
      <point x="345" y="1396"/>
      <point x="459" y="1396" type="curve" smooth="yes" name=".dv03"/>
      <point x="565" y="1396"/>
      <point x="646" y="1321"/>
      <point x="646" y="1224" type="curve" smooth="yes" name=".dh03"/>
      <point x="646" y="1121"/>
      <point x="583" y="1059"/>
      <point x="474" y="1059" type="curve" smooth="yes"/>
      <point x="413" y="1059" type="line" name=".dv06"/>
      <point x="413" y="968" type="line" name=".dv05"/>
      <point x="457" y="968" type="line" smooth="yes"/>
      <point x="613" y="968"/>
      <point x="703" y="896"/>
      <point x="703" y="773" type="curve" smooth="yes" name=".ih01"/>
      <point x="703" y="655"/>
      <point x="601" y="569"/>
      <point x="462" y="569" type="curve" smooth="yes" name=".dv02"/>
      <point x="320" y="569"/>
      <point x="217" y="655"/>
      <point x="217" y="775" type="curve" name=".dh02"/>
      <point x="126" y="766" type="line" name=".dh01"/>
      <point x="126" y="592"/>
      <point x="255" y="482"/>
    </contour>
  </outline>
</glyph>
<glyph name="two.numr" format="2">
  <advance width="921"/>
  <outline>
    <contour>
      <point x="117" y="500" type="line"/>
      <point x="787" y="500" type="line" name=".dv01"/>
      <point x="787" y="584" type="line" name=".dv02"/>
      <point x="245" y="584" type="line" name=".sh03"/>
      <point x="570" y="789"/>
      <point x="739" y="988"/>
      <point x="739" y="1195" type="curve" smooth="yes" name=".sh04"/>
      <point x="739" y="1361"/>
      <point x="627" y="1468"/>
      <point x="453" y="1468" type="curve" smooth="yes" name=".dv04"/>
      <point x="279" y="1468"/>
      <point x="162" y="1340"/>
      <point x="162" y="1151" type="curve" name=".sh01"/>
      <point x="260" y="1142" type="line" name=".sh02"/>
      <point x="260" y="1284"/>
      <point x="337" y="1378"/>
      <point x="457" y="1378" type="curve" smooth="yes" name=".dv03"/>
      <point x="569" y="1378"/>
      <point x="634" y="1308"/>
      <point x="634" y="1188" type="curve" smooth="yes" name=".ah01"/>
      <point x="634" y="1018"/>
      <point x="436" y="800"/>
      <point x="117" y="594" type="curve"/>
    </contour>
  </outline>
</glyph>
<glyph name="zero.dnom" format="2">
  <advance width="921"/>
  <outline>
    <contour>
      <point x="467" y="-10" type="curve" smooth="yes"/>
      <point x="720" y="-10"/>
      <point x="818" y="280"/>
      <point x="818" y="489" type="curve" smooth="yes"/>
      <point x="818" y="705"/>
      <point x="716" y="995"/>
      <point x="458" y="995" type="curve" smooth="yes"/>
      <point x="194" y="995"/>
      <point x="106" y="711"/>
      <point x="106" y="492" type="curve" smooth="yes"/>
      <point x="106" y="268"/>
      <point x="201" y="-10"/>
    </contour>
    <contour>
      <point x="463" y="82" type="curve" smooth="yes"/>
      <point x="259" y="82"/>
      <point x="205" y="331"/>
      <point x="205" y="492" type="curve" smooth="yes"/>
      <point x="205" y="648"/>
      <point x="259" y="899"/>
      <point x="458" y="899" type="curve" smooth="yes"/>
      <point x="658" y="899"/>
      <point x="709" y="649"/>
      <point x="709" y="493" type="curve" smooth="yes"/>
      <point x="709" y="342"/>
      <point x="658" y="82"/>
    </contour>
  </outline>
</glyph>
<glyph name="zero.numr" format="2">
  <advance width="921"/>
  <outline>
    <contour>
      <point x="467" y="482" type="curve" smooth="yes"/>
      <point x="720" y="482"/>
      <point x="818" y="772"/>
      <point x="818" y="981" type="curve" smooth="yes"/>
      <point x="818" y="1197"/>
      <point x="716" y="1488"/>
      <point x="458" y="1488" type="curve" smooth="yes"/>
      <point x="194" y="1488"/>
      <point x="106" y="1203"/>
      <point x="106" y="984" type="curve" smooth="yes"/>
      <point x="106" y="760"/>
      <point x="201" y="482"/>
    </contour>
    <contour>
      <point x="463" y="574" type="curve" smooth="yes"/>
      <point x="259" y="574"/>
      <point x="205" y="823"/>
      <point x="205" y="984" type="curve" smooth="yes"/>
      <point x="205" y="1140"/>
      <point x="259" y="1392"/>
      <point x="458" y="1392" type="curve" smooth="yes"/>
      <point x="658" y="1392"/>
      <point x="709" y="1141"/>
      <point x="709" y="985" type="curve" smooth="yes"/>
      <point x="709" y="834"/>
      <point x="658" y="574"/>
    </contour>
  </outline>
</glyph>
